<?xml version="1.0" encoding="utf-8"?>
<!-- Generator: Adobe Illustrator 21.1.0, SVG Export Plug-In . SVG Version: 6.00 Build 0)  -->
<svg version="1.1" id="Capa_1" xmlns="http://www.w3.org/2000/svg" xmlns:xlink="http://www.w3.org/1999/xlink" x="0px" y="0px"
	 viewBox="0 0 155.9 155.9" style="enable-background:new 0 0 155.9 155.9;" xml:space="preserve">
<style type="text/css">
	.st0{fill:#00237E;}
</style>
<g>
	<path class="st0" d="M86.1,112.3c-4.1,0-6.8,1.5-8.4,3c-2.2-2-5.1-3.1-8.3-3.1c-11,0-23.9,12.3-24.4,12.8c-0.5,0.4-0.7,1-0.7,1.7
		c0,0.6,0.2,1.2,0.7,1.7c9.8,9.8,20.5,14.7,31.8,14.7c19.4,0,33.5-14.4,34.1-15c0.4-0.5,0.7-1.1,0.7-1.7c0-0.6-0.3-1.2-0.8-1.7
		C101.1,116.4,92.8,112.3,86.1,112.3z M75.9,120.2c0.5,0.7,1.2,1.1,2.1,1c0.8-0.1,1.5-0.6,1.9-1.3c0,0,1.6-2.9,6.2-2.9
		c3.3,0,9,1.6,17.7,8.1c-4.2,0.7-10.6,1.6-15,1.6c-1.2,0-2.6-0.2-4.2-0.5c-2.2-0.3-4.7-0.7-7.4-0.7c-2.9,0-5.4,0.5-7.5,0.9
		c-1.4,0.3-2.7,0.5-3.6,0.5c-6,0-11.1-0.9-14.4-1.6c4.3-3.4,11.6-8.5,17.7-8.5C72.2,116.9,74.3,117.9,75.9,120.2z M55.1,130.7
		c3.1,0.5,6.9,0.9,11,0.9c1.4,0,2.9-0.3,4.5-0.6c3.9-0.8,9.2-0.8,13.3-0.2c1.8,0.3,3.5,0.5,4.9,0.5c3.5,0,8-0.5,11.8-1
		c-5.6,3.8-14,8.1-23.9,8.1C69.3,138.4,62,135.7,55.1,130.7z M148.6,48.5c0.9,0.9,0.8,2.4-0.1,3.3c-0.5,0.4-1,0.6-1.6,0.6
		c-0.6,0-1.2-0.2-1.7-0.7l-1-1c0.4,0.9,0.3,2-0.5,2.7c-0.4,0.4-1,0.5-1.5,0.5c-0.7,0-1.3-0.3-1.8-0.8l-0.7-0.9
		c0.8,1,0.6,2.5-0.4,3.2c-0.4,0.3-0.9,0.5-1.4,0.5c-0.7,0-1.4-0.3-1.8-0.9l-1.5-1.9c-3.7,1.6-7.5,2.2-11.3,2.2
		c-10.7,0-20.3-4.8-20.5-4.8c-1.2-0.6-1.6-2-1-3.1c0.6-1.2,2-1.6,3.1-1c0.2,0.1,24.3,12,35.8-3.9c0.8-1,2.2-1.3,3.3-0.5
		c0.8,0.6,0.9,1.6,0.7,2.5L148.6,48.5z M125.6,34.2c-1.3,0.2-2.5-0.6-2.8-1.8c-0.3-1.3,0.6-2.5,1.8-2.8c4.5-0.9,13.7-0.3,16.8,8.6
		c0.4,1.2-0.2,2.6-1.4,3c-0.3,0.1-0.5,0.1-0.8,0.1c-1,0-1.9-0.6-2.2-1.6C134.4,32.5,125.9,34.2,125.6,34.2z M155.3,22.6
		c-0.8,1-2.3,1.1-3.3,0.2c-17.8-15.4-46.1,8.2-46.4,8.5c-0.4,0.4-1,0.5-1.5,0.5c-0.7,0-1.3-0.3-1.8-0.8c-0.8-1-0.7-2.5,0.3-3.3
		c1.3-1.1,31.7-26.4,52.5-8.4C156.1,20.1,156.2,21.6,155.3,22.6z M32.7,55.3c-3.7,0-7.6-0.6-11.3-2.2l-1.5,1.9
		C19.4,55.7,18.7,56,18,56c-0.5,0-1-0.2-1.5-0.5c-1-0.8-1.2-2.2-0.4-3.3l-0.7,0.9c-0.5,0.6-1.1,0.8-1.8,0.8c-0.5,0-1.1-0.2-1.5-0.5
		c-0.8-0.7-0.9-1.8-0.5-2.7l-1,1c-0.5,0.5-1.1,0.7-1.7,0.7c-0.6,0-1.1-0.2-1.6-0.6c-0.9-0.9-1-2.4-0.1-3.3l4-4.2
		c-0.2-0.9-0.1-1.9,0.7-2.5c1-0.7,2.5-0.5,3.3,0.5c11.5,15.9,35.5,4.1,35.8,3.9c1.2-0.6,2.6-0.1,3.1,1c0.6,1.2,0.1,2.6-1,3.1
		C53,50.6,43.4,55.3,32.7,55.3z M31.3,29.6c1.3,0.3,2.1,1.5,1.8,2.8c-0.3,1.2-1.5,2.1-2.7,1.8c-0.4-0.1-8.9-1.7-11.4,5.5
		c-0.3,1-1.2,1.6-2.2,1.6c-0.3,0-0.5,0-0.8-0.1c-1.2-0.4-1.9-1.7-1.4-3C17.6,29.4,26.8,28.7,31.3,29.6z M3.9,22.8
		c-1,0.9-2.4,0.7-3.3-0.2c-0.8-1-0.7-2.5,0.2-3.3c20.8-18,51.2,7.3,52.5,8.4c1,0.8,1.1,2.3,0.3,3.3c-0.5,0.5-1.1,0.8-1.8,0.8
		c-0.5,0-1.1-0.2-1.5-0.5C50,31,21.6,7.4,3.9,22.8z M59.5,99.9c-0.9-0.9-1-2.3-0.2-3.3c0.3-0.4,3.3-3.7,7.2-3.3
		c1.5,0.1,3.7,0.8,5.5,3.6c0.1,0,3.2,3,7.1,2.8c2.1-0.1,4-1.1,5.8-3.1c0-0.1,2.4-3.6,6-3.6c2.3,0,4.2,1.3,5.9,3.9
		c0.7,1.1,0.4,2.5-0.7,3.2c-1.1,0.7-2.5,0.4-3.2-0.7c-0.7-1.1-1.4-1.8-1.9-1.8c-0.8,0-1.9,1.1-2.3,1.8c-2.9,3.3-6,4.9-9.4,5
		c-0.1,0-0.2,0-0.3,0c-5.8,0-10.3-4.4-10.4-4.6c-0.9-1.3-1.6-1.8-2.2-1.9c-1.2-0.3-2.8,1.2-3.4,1.8C61.9,100.7,60.4,100.7,59.5,99.9
		z"/>
</g>
</svg>
