<?xml version="1.0" encoding="utf-8"?>
<!-- Generator: Adobe Illustrator 21.1.0, SVG Export Plug-In . SVG Version: 6.00 Build 0)  -->
<svg version="1.1" id="Layer_1" xmlns="http://www.w3.org/2000/svg" xmlns:xlink="http://www.w3.org/1999/xlink" x="0px" y="0px"
	 viewBox="0 0 512 512" style="enable-background:new 0 0 512 512;" xml:space="preserve">
<style type="text/css">
	.st0{fill:#00237E;}
</style>
<g>
	<g>
		<path class="st0" d="M379.5,348.9c-1.8-3.4-6.1-4.7-9.7-3.3c-26.5,10.3-54.2,17.8-82.3,22.4c-20.9,3.4-42.2,3.4-63.1,0
			c-76.6-12.6-147.6-46.2-205.7-97.4L54,236.4c3-2.9,3.1-7.7,0.2-10.8s-7.7-3.1-10.8-0.2L2.3,265.3c-1.5,1.5-2.3,3.5-2.3,5.6
			c0,2.1,0.9,4.1,2.5,5.5C63.9,332.7,139.8,369.5,222,383c11.3,1.9,22.7,2.8,34,2.8s22.7-0.9,34-2.8c29.2-4.8,58-12.6,85.6-23.4
			C379.8,358,381.8,353,379.5,348.9z"/>
	</g>
</g>
<g>
	<g>
		<path class="st0" d="M509.7,265.3L394.5,153.7c-15.3-14.9-34.6-24.1-55.8-26.7c-21.2-2.6-42.2,1.6-60.7,12.3l-22,12.6l-22-12.6
			c-18.5-10.7-39.5-14.9-60.7-12.3c-21.2,2.6-40.5,11.9-55.8,26.7L67.7,202c-3,2.9-3.1,7.7-0.2,10.8c2.9,3,7.7,3.1,10.8,0.2
			l49.8-48.3c26.2-25.4,66.7-30.4,98.3-12.2l25.8,14.8c2.3,1.4,5.2,1.4,7.6,0l25.8-14.8c31.7-18.2,72.1-13.2,98.3,12.2l109.4,105.9
			c-29.2,25.7-61.8,47.1-97,63.7c-3.8,1.8-5.4,6.3-3.6,10.1c1.3,2.8,4,4.4,6.9,4.4c1.1,0,2.2-0.2,3.2-0.7
			c39.1-18.4,75-42.5,106.8-71.6c1.5-1.4,2.4-3.4,2.5-5.5S511.2,266.8,509.7,265.3z"/>
	</g>
</g>
<g>
	<g>
		<path class="st0" d="M365,250.9c-71.3-19.5-146.7-19.5-218,0c-3.3,0.9-5.6,3.9-5.6,7.3s2.3,6.4,5.6,7.3
			c35.7,9.8,72.3,14.6,109,14.6c36.7,0,73.3-4.9,109-14.6c3.3-0.9,5.6-3.9,5.6-7.3C370.6,254.8,368.3,251.8,365,250.9z M182.9,258.2
			c48.3-9,97.8-9,146.1,0C280.8,267.2,231.2,267.2,182.9,258.2z"/>
	</g>
</g>
</svg>
